<svg width="25" height="25" viewBox="0 0 25 25" fill="none" xmlns="http://www.w3.org/2000/svg">
<g clip-path="url(#clip0_619_18196)">
<path d="M12.4964 3.42578C12.0364 3.42578 11.5664 3.46578 11.0964 3.56578C8.33641 4.09578 6.13641 6.32578 5.61641 9.08578C5.13641 11.6958 6.09641 14.0958 7.83641 15.6458C8.26641 16.0258 8.49641 16.5558 8.49641 17.1158V19.4258C8.49641 20.5258 9.39641 21.4258 10.4964 21.4258H10.7764C11.1264 22.0258 11.7564 22.4258 12.4964 22.4258C13.2364 22.4258 13.8764 22.0258 14.2164 21.4258H14.4964C15.5964 21.4258 16.4964 20.5258 16.4964 19.4258V17.1158C16.4964 16.5658 16.7164 16.0258 17.1364 15.6558C18.5864 14.3758 19.4964 12.5058 19.4964 10.4258C19.4964 6.55578 16.3664 3.42578 12.4964 3.42578ZM14.4964 17.4258H10.4964V16.4258H14.4964V17.4258ZM10.4964 19.4258V18.4258H14.4964V19.4258H10.4964ZM15.8064 14.1658C15.7164 14.2458 15.6464 14.3458 15.5664 14.4258H9.41641C9.33641 14.3358 9.26641 14.2358 9.17641 14.1558C7.85641 12.9758 7.26641 11.2158 7.58641 9.45578C7.94641 7.51578 9.54641 5.90578 11.4764 5.52578C11.8164 5.45578 12.1564 5.42578 12.4964 5.42578C15.2564 5.42578 17.4964 7.66578 17.4964 10.4258C17.4964 11.8558 16.8864 13.2158 15.8064 14.1658Z" fill="#FFF8E7"/>
<path d="M12.9971 11.4258H11.9971V14.4258H12.9971V11.4258Z" fill="#FFF8E7"/>
<path d="M10.876 9.29966L10.1689 10.0068L12.2902 12.1281L12.9973 11.421L10.876 9.29966Z" fill="#FFF8E7"/>
<path d="M11.998 11.431L12.7051 12.1381L14.8264 10.0168L14.1193 9.30969L11.998 11.431Z" fill="#FFF8E7"/>
</g>
<defs>
<clipPath id="clip0_619_18196">
<rect width="24" height="24" fill="white" transform="translate(0.5 0.425781)"/>
</clipPath>
</defs>
</svg>
