<svg width="24" height="25" viewBox="0 0 24 25" fill="none" xmlns="http://www.w3.org/2000/svg">
<g clip-path="url(#clip0_619_17187)">
<path d="M20 4.42578H16.83L15 2.42578H9L7.17 4.42578H4C2.9 4.42578 2 5.32578 2 6.42578V18.4258C2 19.5258 2.9 20.4258 4 20.4258H20C21.1 20.4258 22 19.5258 22 18.4258V6.42578C22 5.32578 21.1 4.42578 20 4.42578ZM20 18.4258H4V6.42578H8.05L9.88 4.42578H14.12L15.95 6.42578H20V18.4258ZM12 7.42578C9.24 7.42578 7 9.66578 7 12.4258C7 15.1858 9.24 17.4258 12 17.4258C14.76 17.4258 17 15.1858 17 12.4258C17 9.66578 14.76 7.42578 12 7.42578ZM12 15.4258C10.35 15.4258 9 14.0758 9 12.4258C9 10.7758 10.35 9.42578 12 9.42578C13.65 9.42578 15 10.7758 15 12.4258C15 14.0758 13.65 15.4258 12 15.4258Z" fill="#202F00"/>
</g>
<defs>
<clipPath id="clip0_619_17187">
<rect width="24" height="24" fill="white" transform="translate(0 0.425781)"/>
</clipPath>
</defs>
</svg>
