<svg width="29" height="28" viewBox="0 0 29 28" fill="none" xmlns="http://www.w3.org/2000/svg">
<g clip-path="url(#clip0_619_18316)">
<path d="M8.70081 0.0975464C7.21121 0.167826 6.19397 0.405546 5.30469 0.754986C4.38433 1.11367 3.60425 1.59499 2.82809 2.37395C2.05193 3.15291 1.57397 3.93355 1.21781 4.85531C0.873126 5.74655 0.639606 6.76463 0.573806 8.25507C0.508006 9.74551 0.493446 10.2246 0.500726 14.0264C0.508006 17.8283 0.524806 18.3048 0.597046 19.7983C0.668166 21.2877 0.905046 22.3046 1.25449 23.1942C1.61373 24.1145 2.09449 24.8943 2.87373 25.6708C3.65297 26.4472 4.43305 26.9241 5.35705 27.2808C6.24745 27.6249 7.26581 27.8595 8.75597 27.9248C10.2461 27.99 10.7258 28.0051 14.5265 27.9979C18.3272 27.9906 18.8057 27.9738 20.299 27.9029C21.7922 27.8321 22.8038 27.5935 23.6937 27.2458C24.614 26.8857 25.3944 26.4058 26.1703 25.6263C26.9462 24.8467 27.4238 24.0655 27.7797 23.1432C28.1247 22.2528 28.359 21.2345 28.4237 19.7454C28.489 18.2511 28.5044 17.7739 28.4971 13.9727C28.4898 10.1714 28.4727 9.69483 28.4019 8.20187C28.331 6.70891 28.0939 5.69503 27.7447 4.80491C27.3849 3.88455 26.9047 3.10531 26.1258 2.32831C25.3468 1.55131 24.565 1.07391 23.643 0.718866C22.752 0.374186 21.7342 0.139266 20.2441 0.0748664C18.7539 0.0104664 18.2743 -0.00605355 14.4722 0.00122645C10.67 0.00850645 10.194 0.0247464 8.70081 0.0975464ZM8.86433 25.4062C7.49933 25.3468 6.75817 25.12 6.26425 24.9302C5.61017 24.6782 5.14425 24.3735 4.65201 23.8861C4.15977 23.3986 3.85737 22.931 3.60201 22.2783C3.41021 21.7844 3.17921 21.0441 3.11537 19.6791C3.04593 18.2037 3.03137 17.7608 3.02325 14.0231C3.01513 10.2853 3.02941 9.84295 3.09409 8.36707C3.15233 7.00319 3.38053 6.26119 3.57009 5.76755C3.82209 5.11263 4.12561 4.64755 4.61421 4.15559C5.10281 3.66363 5.56901 3.36067 6.22225 3.10531C6.71561 2.91267 7.45593 2.68363 8.82037 2.61867C10.2968 2.54867 10.7392 2.53467 14.4764 2.52655C18.2135 2.51843 18.657 2.53243 20.134 2.59739C21.4979 2.65675 22.2402 2.88271 22.7333 3.07339C23.3876 3.32539 23.8533 3.62807 24.3452 4.11751C24.8372 4.60695 25.1404 5.07147 25.3958 5.72611C25.5887 6.21807 25.8178 6.95811 25.8822 8.32339C25.9524 9.79983 25.9684 10.2425 25.9751 13.9794C25.9818 17.7163 25.9687 18.1601 25.904 19.6354C25.8444 21.0004 25.6181 21.7418 25.428 22.2363C25.176 22.8901 24.8722 23.3563 24.3833 23.848C23.8944 24.3397 23.4288 24.6426 22.7753 24.898C22.2825 25.0903 21.5413 25.3199 20.178 25.3849C18.7016 25.4543 18.2592 25.4689 14.5206 25.477C10.782 25.4851 10.341 25.47 8.8646 25.4062M20.2774 6.51711C20.278 6.8494 20.377 7.17407 20.5621 7.45005C20.7472 7.72603 21.01 7.94092 21.3172 8.06754C21.6244 8.19417 21.9623 8.22684 22.2881 8.16143C22.6139 8.09602 22.913 7.93546 23.1475 7.70006C23.3821 7.46466 23.5415 7.165 23.6057 6.83896C23.6699 6.51293 23.636 6.17518 23.5083 5.86842C23.3805 5.56166 23.1647 5.29968 22.888 5.11561C22.6114 4.93154 22.2863 4.83364 21.954 4.83431C21.5086 4.8352 21.0817 5.01297 20.7673 5.32854C20.4529 5.64411 20.2767 6.07164 20.2774 6.51711ZM7.31061 14.0135C7.31845 17.9839 10.5429 21.1953 14.5125 21.1877C18.482 21.1801 21.6956 17.9559 21.688 13.9855C21.6805 10.0151 18.4552 6.80299 14.485 6.81083C10.5149 6.81867 7.30305 10.0437 7.31061 14.0135ZM9.83228 14.0085C9.83046 13.0855 10.1024 12.1827 10.6136 11.4142C11.1249 10.6458 11.8526 10.0462 12.7046 9.69129C13.5567 9.33639 14.4948 9.24212 15.4004 9.42039C16.306 9.59867 17.1384 10.0415 17.7924 10.6929C18.4463 11.3442 18.8925 12.1749 19.0743 13.0798C19.2562 13.9847 19.1656 14.9232 18.8141 15.7766C18.4626 16.6301 17.8659 17.3601 17.0994 17.8744C16.333 18.3887 15.4313 18.6642 14.5083 18.666C13.8954 18.6673 13.2883 18.5479 12.7216 18.3145C12.1549 18.0811 11.6397 17.7384 11.2055 17.3059C10.7713 16.8734 10.4265 16.3596 10.1909 15.7938C9.95528 15.228 9.83342 14.6214 9.83228 14.0085Z" fill="#D02E01"/>
</g>
<defs>
<clipPath id="clip0_619_18316">
<rect width="28" height="28" fill="white" transform="translate(0.5)"/>
</clipPath>
</defs>
</svg>
