<svg width="221" height="188" viewBox="0 0 221 188" fill="none" xmlns="http://www.w3.org/2000/svg">
<g clip-path="url(#clip0_619_17521)">
<path d="M171.598 56.316C181.482 56.316 188.193 51.7727 191.772 45.4372V50.3913C191.772 57.4592 195.303 62.1335 206.134 62.1335C216.054 62.1335 220.496 58.4834 220.496 53.1303C220.496 50.8498 218.442 49.4802 216.048 49.4802C214.911 49.4802 213.654 49.8197 212.517 50.3913C212.63 50.8498 212.856 51.7608 212.856 52.8981C212.856 55.6312 211.719 59.2813 206.813 59.2813C202.597 59.2813 201.001 55.8634 201.001 50.5044V27.8179C201.001 25.4242 201.686 24.7394 205.33 24.9657L210.576 25.3051V21.7741H205.33C201.68 21.7741 201.001 21.4347 201.001 19.7198V12.5387C201.001 11.7408 200.429 11.2823 199.631 11.2823H198.607C197.696 11.2823 197.125 11.3954 196.898 12.1933C195.189 18.8028 192.569 22.1135 185.501 22.7923V24.8466H189.949C191.319 24.8466 191.885 25.3051 191.885 27.6988V38.2739C188.741 47.0627 181.315 51.1832 174.557 51.1832C166.804 51.1832 162.928 46.9675 162.589 41.4953C162.589 40.9237 162.928 40.6974 163.5 40.6974C164.411 40.6974 166.12 41.0368 168.287 41.0368C179.118 41.0368 183.673 37.6189 183.673 30.551C183.673 24.9657 178.773 21.0893 170.109 21.0893C160.874 21.0893 152.329 26.9009 152.329 38.53C152.329 50.1591 160.534 56.31 171.592 56.31L171.598 56.316ZM170.002 23.9415C174.105 23.9415 175.248 27.02 175.248 30.0984C175.248 35.1121 170.687 38.0774 165.328 38.0774C162.934 38.0774 162.136 37.6189 162.136 35.1121C162.136 29.9853 163.845 23.9415 170.002 23.9415Z" fill="#D02E01"/>
<path d="M92.6024 56.3159C100.927 56.3159 106.167 51.5285 107.31 48.2237L105.601 46.8542C103.094 50.3852 100.016 51.07 97.5089 51.07C89.7561 51.07 83.9446 45.0262 83.9446 35.3382C83.9446 28.7288 86.5645 23.9414 92.263 23.9414C97.2766 23.9414 97.9614 28.044 98.1877 30.8962C98.414 33.2899 99.7835 35.4573 102.862 35.4573C105.94 35.4573 107.31 33.6353 107.31 31.0093C107.31 28.044 105.375 25.9957 103.207 23.8282C99.9026 20.4104 98.6462 17.6713 98.6462 12.997C98.6462 5.35746 103.094 2.96376 106.851 2.96376C113.008 2.96376 115.628 6.04222 115.628 15.3907V48.5631C115.628 52.0941 114.372 53.1243 110.841 53.4637V55.9705H129.538V53.4637C126.007 53.1243 124.751 52.0941 124.751 48.5631V43.2041C124.751 41.1498 125.549 40.0125 127.257 40.0125C128.282 40.0125 128.853 40.471 129.764 41.382L138.541 51.3022C148.414 61.395 158.911 70.428 159.793 78.0021C155.625 79.324 152.677 81.6938 152.677 85.2725C152.677 87.6662 154.047 89.4882 157.006 89.4882C164.872 89.4882 158.376 79.4549 166.926 79.4549C171.255 79.4549 172.97 82.188 172.97 87.6602V88.9166C172.97 90.8518 172.398 91.4234 170.237 91.7688C155.529 93.8231 150.402 97.241 150.402 103.398C150.402 109.555 155.416 112.062 160.549 112.062C165.682 112.062 169.326 109.209 171.719 106.589C172.059 106.25 172.178 106.018 172.517 106.018C172.857 106.018 173.089 106.244 173.089 106.816C173.089 109.549 175.37 111.943 180.383 111.943C186.082 111.943 188.023 108.977 188.589 106.018L186.88 105.559C186.653 106.357 185.742 107.155 184.486 107.155C182.664 107.155 182.092 106.018 182.092 104.988V90.5124C182.092 80.0266 178.103 76.7218 169.1 76.7218C166.884 76.7218 164.693 76.9064 162.663 77.2935C162.77 76.4539 162.829 75.6203 162.829 74.7866C162.829 66.8076 158.042 58.9418 145.96 46.8602L134.79 33.8675L140.947 28.6216C145.049 25.2037 146.645 22.5778 146.645 19.3862C146.645 16.7662 145.508 13.2293 141.173 13.2293C137.41 13.2293 135.588 15.5098 135.588 18.3561C135.588 21.7739 139.238 22.9172 139.238 24.9655C139.238 25.7634 138.898 26.3351 138.214 27.0198L127.728 36.1361C127.156 36.5946 126.704 36.8209 126.132 36.8209C125.221 36.8209 124.763 36.2493 124.763 34.8857V15.2776C124.763 3.53539 117.355 0.230652 106.982 0.230652C97.7471 0.230652 90.4528 4.22015 90.4528 12.4254C90.4528 16.0696 92.4237 19.3445 95.9428 21.7382C94.347 21.2797 92.8167 21.0892 91.2507 21.0892C82.8132 21.0892 74.2686 27.0139 74.2686 38.8692C74.2686 50.7246 83.2717 56.3099 92.6203 56.3099L92.6024 56.3159ZM172.964 98.6045C172.964 103.392 169.546 106.923 164.985 106.923C161.222 106.923 159.739 104.642 159.739 101.909C159.739 98.8308 161.561 95.0676 169.999 94.3888C172.392 94.1625 172.964 94.9604 172.964 96.6693V98.6045Z" fill="#D02E01"/>
<path d="M108.105 125.28C102.52 125.28 99.8998 122.089 99.8998 112.287V81.0562C99.8998 79.0019 98.7625 78.0909 96.4819 78.4362L85.9961 80.3714V82.7651C89.414 82.4257 90.7835 83.3368 90.7835 86.8678V112.972C90.7835 124.601 98.0777 128.132 107.313 128.132C117.912 128.132 123.158 124.143 123.158 119.016C123.158 116.396 120.991 114.455 118.257 114.455C117.686 114.455 117.001 114.455 116.435 114.681C116.549 115.021 116.662 115.705 116.662 116.503C116.662 119.695 115.179 125.28 108.111 125.28H108.105Z" fill="#D02E01"/>
<path d="M65.6976 48.4507V23.6026C65.6976 21.5483 64.3281 20.8695 62.3929 21.2089L51.9071 23.2632V25.6569C55.2118 25.3175 56.6945 26.2286 56.6945 29.6464V48.4566C56.6945 51.9876 55.4381 53.0177 51.7939 53.3572V55.864H70.491V53.3572C67.0731 53.0177 65.7036 51.9876 65.7036 48.4566L65.6976 48.4507Z" fill="#D02E01"/>
<path d="M162.138 162.209C162.477 161.87 162.596 161.638 162.936 161.638C163.275 161.638 163.507 161.828 163.507 162.436C163.507 165.169 165.788 167.562 170.802 167.562C176.5 167.562 178.441 164.597 179.007 161.638L177.298 161.179C177.072 161.977 176.161 162.775 174.904 162.775C173.082 162.775 172.511 161.638 172.511 160.608V146.132C172.511 135.646 168.521 132.342 159.518 132.342C157.422 132.342 155.338 132.508 153.391 132.854C153.677 131.097 153.819 129.388 153.819 127.781C153.819 118.777 149.491 111.025 142.077 102.361L130.907 89.3683L137.064 84.1224C141.166 80.7045 142.762 78.0786 142.762 74.887C142.762 72.267 141.625 68.7301 137.29 68.7301C133.527 68.7301 131.705 71.0106 131.705 73.8569C131.705 77.2747 135.355 78.418 135.355 80.4663C135.355 81.2642 135.015 81.8359 134.33 82.5206L123.845 91.6369C123.273 92.0954 122.82 92.3217 122.249 92.3217C121.338 92.3217 120.879 91.7501 120.879 90.3865V64.7406C120.879 62.6863 119.742 61.549 117.575 62.0075L106.976 64.0618V66.4555C110.393 66.1161 111.763 67.0271 111.763 70.445V104.07C111.763 107.601 110.507 108.631 106.976 108.97V111.477H125.673V108.97C122.142 108.631 120.885 107.601 120.885 104.07V98.7109C120.885 96.6566 121.683 95.5193 123.392 95.5193C124.416 95.5193 124.988 95.9778 125.899 96.8888L134.676 106.809C143.679 117.069 150.521 124.25 150.521 132.913C150.521 133.122 150.521 133.33 150.509 133.539C146.192 134.837 143.107 137.236 143.107 140.892C143.107 143.286 144.477 145.108 147.436 145.108C155.302 145.108 148.806 135.075 157.356 135.075C161.685 135.075 163.4 137.808 163.4 143.28V144.536C163.4 146.472 162.829 147.043 160.667 147.389C145.96 149.443 140.833 152.861 140.833 159.018C140.833 165.175 145.846 167.682 150.979 167.682C156.112 167.682 159.756 164.829 162.15 162.209H162.138ZM155.409 162.555C151.646 162.555 150.163 160.274 150.163 157.541C150.163 154.463 151.985 150.699 160.423 150.021C162.817 149.794 163.388 150.592 163.388 152.301V154.236C163.388 159.024 159.97 162.555 155.409 162.555Z" fill="#D02E01"/>
<path d="M204.314 132.46C199.3 132.46 195.65 134.854 194.167 136.45C193.828 136.789 193.483 137.021 193.143 137.021C192.804 137.021 192.458 136.563 192.458 135.884V135.086C192.458 133.49 191.661 132.466 190.065 132.466C189.838 132.466 189.493 132.466 189.154 132.579L178.555 134.514V136.795C181.973 136.569 183.455 137.48 183.455 140.898V172.587C183.455 181.704 180.722 184.782 175.131 184.782C170.57 184.782 167.724 181.817 167.724 177.029C167.724 175.773 167.837 175.094 167.95 174.296C167.152 174.07 166.128 173.957 165.098 173.957C161.793 173.957 160.084 175.892 160.084 178.631C160.084 183.645 164.985 187.634 175.131 187.634C185.277 187.634 192.458 184.216 192.458 172.587V168.026C192.458 166.204 192.917 165.406 193.941 165.406C195.311 165.406 197.931 167.574 202.831 167.574C211.15 167.574 219.361 161.19 219.361 149.448C219.361 138.617 212.406 132.466 204.314 132.466V132.46ZM201.92 164.835C198.044 164.835 192.458 162.328 192.458 153.664V147.852C192.458 139.76 196.674 137.706 200.098 137.706C206.142 137.706 209.899 144.429 209.899 152.866C209.899 159.934 207.166 164.835 201.92 164.835Z" fill="#D02E01"/>
<path d="M9.61391 28.0436C13.3771 28.0436 15.7708 25.9893 15.6577 23.0299C13.8356 21.5473 12.8055 20.0646 12.8055 17.4446C12.8055 15.5094 14.0619 12.0856 21.0108 12.0856C24.0892 12.0856 26.1376 13.5683 26.1376 16.5336V54.3802C26.1376 57.3456 24.3155 58.4829 18.2717 58.9414V61.4482H44.3761V58.9414C38.2192 58.4829 36.5103 57.3456 36.5103 54.3802V16.7599C36.5103 15.1641 37.195 14.253 38.6777 14.253C42.5541 14.253 48.4788 17.1052 56.0052 17.1052C64.8953 17.1052 68.4322 12.3178 68.4322 7.53042C68.4322 2.74303 65.4728 0.00396729 61.138 0.00396729C57.1485 0.00396729 54.2963 2.39767 54.2963 5.92867C54.2963 9.12027 56.8031 9.91817 56.8031 11.514C56.8031 12.5381 55.6658 13.336 52.8136 13.336C45.6325 13.336 31.2703 9.80503 21.4633 9.80503C10.519 9.80503 3.33789 14.253 3.33789 21.321C3.33789 25.1973 5.84473 28.0436 9.60795 28.0436H9.61391Z" fill="#D02E01"/>
<path d="M72.1952 74.685C72.2071 73.5 72.3738 72.3865 74.2495 72.3865C78.1258 72.3865 83.0264 75.0065 90.2075 75.0065C96.9301 75.0065 102.063 72.1543 102.063 66.1165C102.063 62.0138 99.8954 59.0485 95.4534 59.0485C91.4639 59.0485 89.0702 61.6685 89.0702 64.6338C89.0702 67.1407 90.5528 68.5102 90.5528 69.7606C90.5528 70.6717 89.7549 71.017 87.5875 71.017C78.3521 71.017 69.4621 66.2296 55.3262 66.2296C42.8992 66.2296 34.3545 72.6128 34.3545 83.0986C34.3545 90.2797 38.0046 94.8409 43.2445 94.8409C47.3472 94.8409 49.0561 92.7866 49.0561 89.595C49.0561 88.6839 48.943 87.6598 48.5976 86.6296C44.2687 86.6296 40.5055 84.5754 40.5055 79.2223C40.5055 72.7259 46.6624 69.3021 54.8677 69.3021C59.6551 69.3021 61.9356 71.4696 61.9356 75.2268V104.41C61.9356 107.488 60.1136 108.625 53.9566 109.084V111.591H80.061V109.084C74.0173 108.625 72.1952 107.488 72.1952 104.41V74.6731V74.685Z" fill="#D02E01"/>
<path d="M135.688 162.668C133.866 162.668 133.295 161.531 133.295 160.501V146.025C133.295 135.539 129.305 132.235 120.302 132.235C111.984 132.235 103.886 134.855 103.886 140.785C103.886 143.179 105.255 145.001 108.214 145.001C116.08 145.001 109.584 134.968 118.135 134.968C122.463 134.968 124.178 137.701 124.178 143.173V144.429C124.178 146.365 123.607 146.936 121.445 147.282C106.738 149.336 101.611 152.754 101.611 158.911C101.611 163.573 104.713 166.259 108.536 167.193C109.643 169.123 110.388 171.493 110.388 174.297C110.388 182.389 106.398 184.783 102.409 184.783C96.8235 184.783 93.8582 181.818 93.8582 172.356V145.114C93.8582 134.968 88.2729 132.235 82.5744 132.235C76.876 132.235 74.2501 135.087 72.2017 137.135C71.7432 137.594 71.4038 137.933 70.9453 137.933C70.3737 137.933 70.0343 137.475 70.0343 136.224V120.379C70.0343 118.67 69.2364 117.646 67.6406 117.646C67.4143 117.646 67.069 117.646 66.7296 117.759L56.1306 119.695V122.088C59.5485 121.749 60.918 122.66 60.918 126.191V144.596C55.0112 155.273 46.788 161.531 35.2721 161.531C21.4815 161.531 11.5614 152.295 11.4482 135.313C11.4482 122.547 18.1708 114.681 27.8647 114.681C35.9568 114.681 39.7201 119.355 39.7201 126.197C39.7201 130.073 41.7744 132.467 45.6448 132.467C49.9737 132.467 51.8017 129.615 51.8017 126.197C51.8017 119.355 43.9358 111.608 30.2584 111.608C14.3004 111.608 0.503906 122.094 0.503906 140.107C0.503906 158.119 14.0682 168.492 30.1393 168.492C44.2455 168.492 55.0767 160.763 60.918 151.033V159.715C60.918 163.246 59.6616 164.276 56.1306 164.615V167.122H74.8277V164.615C71.2967 164.276 70.0403 163.246 70.0403 159.715V146.948C70.0403 141.702 72.7734 137.713 77.5608 137.713C82.3482 137.713 84.7419 141.476 84.7419 146.948V172.594C84.7419 182.627 90.3272 187.641 101.724 187.641C110.959 187.641 118.593 183.765 118.593 174.529C118.593 172.243 117.819 169.194 115.675 167.009C118.879 166.05 121.177 164.02 122.928 162.102C123.267 161.763 123.386 161.531 123.726 161.531C124.065 161.531 124.297 161.703 124.297 162.329C124.297 165.062 126.12 167.455 131.139 167.455C136.951 167.455 138.892 164.49 139.458 161.531L138.088 161.072C137.862 161.87 136.951 162.668 135.694 162.668H135.688ZM124.178 154.117C124.178 158.905 120.76 162.436 116.199 162.436C112.436 162.436 110.953 160.155 110.953 157.422C110.953 154.344 112.776 150.58 121.213 149.902C123.607 149.675 124.178 150.473 124.178 152.182V154.117Z" fill="#D02E01"/>
</g>
<defs>
<clipPath id="clip0_619_17521">
<rect width="220" height="187.631" fill="white" transform="translate(0.5)"/>
</clipPath>
</defs>
</svg>
