<svg width="241" height="160" viewBox="0 0 241 160" fill="none" xmlns="http://www.w3.org/2000/svg">
<path d="M96.2044 44.013V34.0652C96.2044 30.2181 94.666 27.361 91.5845 27.361C88.5029 27.361 86.6908 30.2181 86.6908 34.0652V43.5699C86.6908 46.0969 87.6252 46.8654 90.1546 47.087V48.7889H76.6771V47.087C79.1498 46.8654 80.0889 46.0969 80.0889 43.5699V34.0652C80.0889 30.2181 78.5505 27.361 75.469 27.361C72.3875 27.361 70.5754 30.2181 70.5754 34.0652V43.5699C70.5754 46.0969 71.5098 46.8654 73.9306 47.087V48.7889H60.4531V47.087C63.0391 46.8654 63.9735 46.0969 63.9735 43.5699V29.723C63.9735 27.196 62.9306 26.5359 60.4531 26.7575V25.0556L68.1546 23.627C69.7496 23.3536 70.5754 24.0655 70.5754 25.329C70.5754 27.3091 71.4531 27.7476 72.1704 26.9791C73.3785 25.659 75.4171 23.4102 79.3764 23.4102C81.5235 23.4102 84.1048 24.0702 85.6479 26.5407C86.3086 27.5826 87.0778 27.8608 87.7951 27.0357C89.5553 25.0037 91.6458 23.4102 95.1096 23.4102C98.9603 23.4102 102.811 25.3903 102.811 33.0798V44.013C102.811 45.88 104.746 46.823 106.732 46.4316L105.345 47.1435C104.628 48.5721 102.816 49.119 101.164 49.119C98.3043 49.119 96.2138 47.5254 96.2138 44.0083L96.2044 44.013Z" fill="#D02E01"/>
<path d="M107.262 36.4251C107.262 27.7973 113.972 23.5117 120.848 23.5117C126.567 23.5117 130.748 26.4772 130.748 30.9844C130.748 35.4916 126.841 36.095 120.739 36.4816L116.176 36.7551C115.185 36.8117 114.746 37.3067 114.746 38.5136C114.746 42.0779 117.445 44.5531 120.772 45.2933C127.11 46.7029 133.547 41.5498 137.256 36.9437C137.345 36.8305 138.553 37.9479 138.502 38.2968C138.459 38.5608 138.289 38.7824 138.119 38.9898C132.603 45.7553 123.354 51.6863 114.567 47.3017C110.055 45.2603 107.266 41.465 107.266 36.4298L107.262 36.4251ZM116.223 34.9447L119.083 34.7797C123.481 34.5062 124.585 33.5727 124.585 31.041C124.585 28.2405 123.264 25.6003 119.965 25.6003C115.841 25.6003 114.411 29.669 114.411 32.7429C114.411 34.4449 114.907 34.9965 116.228 34.94L116.223 34.9447Z" fill="#D02E01"/>
<path d="M136.798 44.0125V18.9543C136.798 16.4272 135.755 15.7672 133.277 15.9888V14.2868L140.979 12.8583C142.574 12.5848 143.4 13.2967 143.4 14.7818V44.0172C143.4 45.8842 144.334 46.6527 145.929 46.1576V47.1477C145.212 48.5762 143.4 49.1231 141.748 49.1231C138.888 49.1231 136.798 47.5296 136.798 44.0125Z" fill="#D02E01"/>
<path d="M177.117 46.6464C175.744 43.7893 175.578 40.4372 177.669 40.4372C178.438 40.4372 178.934 40.8238 179.207 41.6441C180.529 45.5997 182.836 47.1414 186.083 47.1414C189.768 47.1414 190.811 45.2744 190.811 43.5158C190.811 41.0972 188.556 40.3288 185.092 39.2821C180.637 37.9102 176.399 35.765 176.399 30.9844C176.399 26.2038 180.854 23.5117 186.522 23.5117C189.82 23.5117 192.902 24.4452 194.771 25.8172C196.144 28.6742 196.309 31.9697 194.218 31.9697C193.449 31.9697 192.954 31.5831 192.68 30.7628C191.359 26.8072 188.995 25.3787 186.191 25.3787C183.554 25.3787 182.341 26.6988 182.341 28.6742C182.341 31.1447 184.431 32.3563 187.069 33.1814C191.028 34.3883 196.97 35.8734 196.97 41.3707C196.97 46.4813 191.689 49.1168 185.696 49.1168C182.067 49.1168 178.985 48.0749 177.117 46.6464Z" fill="#D02E01"/>
<path d="M201.05 46.6464C199.677 43.7893 199.512 40.4372 201.602 40.4372C202.372 40.4372 202.867 40.8238 203.141 41.6441C204.462 45.5997 206.77 47.1414 210.016 47.1414C213.702 47.1414 214.745 45.2744 214.745 43.5158C214.745 41.0972 212.489 40.3288 209.025 39.2821C204.571 37.9102 200.333 35.765 200.333 30.9844C200.333 26.2038 204.788 23.5117 210.455 23.5117C213.754 23.5117 216.835 24.4452 218.704 25.8172C220.077 28.6742 220.243 31.9697 218.152 31.9697C217.383 31.9697 216.887 31.5831 216.614 30.7628C215.292 26.8072 212.928 25.3787 210.125 25.3787C207.487 25.3787 206.274 26.6988 206.274 28.6742C206.274 31.1447 208.365 32.3563 211.003 33.1814C214.962 34.3883 220.903 35.8734 220.903 41.3707C220.903 46.4813 215.623 49.1168 209.63 49.1168C206.001 49.1168 202.919 48.0749 201.05 46.6464Z" fill="#D02E01"/>
<path d="M54.7181 44.3209V26.9616C54.7181 25.5284 53.7601 25.0522 52.4058 25.2879L45.0724 26.7212V28.3949C47.3847 28.1544 48.4182 28.7909 48.4182 31.1812V44.3209C48.4182 46.7913 47.5405 47.5079 44.9922 47.7437V49.4975H58.0639V47.7437C55.6713 47.5032 54.7181 46.7866 54.7181 44.3209Z" fill="#D02E01"/>
<path d="M15.5003 29.8361C18.1288 29.8361 19.8041 28.4029 19.7239 26.3332C18.4497 25.296 17.7324 24.2635 17.7324 22.4295C17.7324 21.0764 18.6102 18.6861 23.4708 18.6861C25.6226 18.6861 27.0572 19.7233 27.0572 21.793V48.2326C27.0572 50.3023 25.7831 51.0991 21.5596 51.4197V53.1735H39.8127V51.4197C35.509 51.0991 34.315 50.307 34.315 48.2326V21.9533C34.315 20.8407 34.7917 20.1995 35.8298 20.1995C38.5386 20.1995 42.6866 22.189 47.9436 22.189C54.1632 22.189 56.6313 18.8464 56.6313 15.499C56.6313 12.1516 54.5596 10.2422 51.53 10.2422C48.7411 10.2422 46.7496 11.9159 46.7496 14.3816C46.7496 16.6116 48.5051 17.168 48.5051 18.2853C48.5051 19.0019 47.7076 19.5583 45.7162 19.5583C40.6951 19.5583 30.6531 17.0878 23.7964 17.0878C16.1421 17.0878 11.1211 20.1947 11.1211 25.131C11.1211 27.8371 12.8766 29.8314 15.5051 29.8314L15.5003 29.8361Z" fill="#D02E01"/>
<path d="M147.914 34.6204C147.914 25.9926 154.625 21.707 161.5 21.707C167.22 21.707 171.401 24.6725 171.401 29.1797C171.401 33.6869 167.493 34.2903 161.392 34.6769L156.828 34.9504C155.837 35.007 155.398 35.502 155.398 36.7089C155.398 40.2732 158.098 42.7484 161.425 43.4886C167.762 44.8982 174.199 39.7452 177.908 35.139C177.998 35.0258 179.206 36.1432 179.154 36.4921C179.111 36.7561 178.942 36.9777 178.772 37.1851C173.255 43.9506 164.006 49.8816 155.219 45.497C150.708 43.4556 147.919 39.6603 147.919 34.6251L147.914 34.6204ZM156.875 33.14L159.735 32.975C164.133 32.7015 165.238 31.768 165.238 29.2363C165.238 26.4358 163.916 23.7956 160.618 23.7956C156.493 23.7956 155.063 27.8643 155.063 30.9383C155.063 32.6402 155.559 33.1918 156.88 33.1353L156.875 33.14Z" fill="#D02E01"/>
<path d="M104.197 46.3026C104.334 46.3498 106.533 47.09 108.242 45.6992C109.242 44.8788 109.521 43.7803 109.596 43.3984L111.838 45.3597C110.559 46.4346 109.341 47.0853 108.473 47.4766C106.604 48.3158 104.599 48.6128 103.244 48.8485C102.763 48.9334 102.442 48.9523 102.131 49.0607C102.088 49.0748 102.886 48.6552 102.801 48.5987C102.404 48.3535 103.707 46.5855 103.707 46.5855L104.197 46.3074V46.3026Z" fill="#D02E01"/>
<path d="M157.738 90.4043C164.652 90.4043 169.342 87.2314 171.848 82.8044V86.2649C171.848 91.2011 174.321 94.4683 181.89 94.4683C188.827 94.4683 191.932 91.9177 191.932 88.179C191.932 86.5855 190.498 85.6284 188.823 85.6284C188.025 85.6284 187.147 85.8689 186.35 86.2649C186.43 86.5855 186.59 87.222 186.59 88.0187C186.59 89.9282 185.793 92.4788 182.367 92.4788C179.418 92.4788 178.304 90.0885 178.304 86.3451V70.4992C178.304 68.8255 178.78 68.3494 181.333 68.5097L185 68.7501V66.2796H181.333C178.78 66.2796 178.304 66.0392 178.304 64.8464V59.83C178.304 59.2737 177.907 58.9531 177.346 58.9531H176.629C175.992 58.9531 175.59 59.0333 175.435 59.5896C174.241 64.2099 172.405 66.5201 167.464 66.9963V68.4295H170.574C171.532 68.4295 171.928 68.7501 171.928 70.4191V77.8069C169.729 83.9453 164.539 86.826 159.815 86.826C154.393 86.826 151.684 83.8793 151.443 80.0558C151.443 79.6597 151.684 79.4994 152.08 79.4994C152.717 79.4994 153.911 79.7399 155.426 79.7399C163 79.7399 166.185 77.3496 166.185 72.4134C166.185 68.5097 162.759 65.8035 156.7 65.8035C150.245 65.8035 144.266 69.8628 144.266 77.986C144.266 86.1093 150.004 90.4091 157.738 90.4091V90.4043ZM156.625 67.7883C159.494 67.7883 160.291 69.9382 160.291 72.088C160.291 75.591 157.101 77.6607 153.354 77.6607C151.679 77.6607 151.122 77.3401 151.122 75.591C151.122 72.0079 152.316 67.7883 156.62 67.7883H156.625Z" fill="#D02E01"/>
<path d="M83.6868 86.6998V69.3405C83.6868 67.9073 82.7289 67.4311 81.3745 67.6668L74.0412 69.1001V70.7738C76.3535 70.5333 77.3869 71.1698 77.3869 73.5601V86.6998C77.3869 89.1702 76.5092 89.8868 73.9609 90.1226V91.8764H87.0326V90.1226C84.6401 89.8821 83.6868 89.1655 83.6868 86.6998Z" fill="#D02E01"/>
<path d="M44.473 72.0705C47.1015 72.0705 48.7767 70.6373 48.6965 68.5676C47.4224 67.5303 46.7051 66.4978 46.7051 64.6638C46.7051 63.3108 47.5828 60.9204 52.4434 60.9204C54.5953 60.9204 56.0299 61.9577 56.0299 64.0274V90.467C56.0299 92.5367 54.7557 93.3334 50.5322 93.654V95.4079H68.7853V93.654C64.4816 93.3334 63.2877 92.5414 63.2877 90.467V64.1877C63.2877 63.075 63.7643 62.4338 64.8025 62.4338C67.5112 62.4338 71.6592 64.4234 76.9162 64.4234C83.1359 64.4234 85.6039 61.0807 85.6039 57.7334C85.6039 54.386 83.5323 52.4766 80.5027 52.4766C77.7137 52.4766 75.7223 54.1503 75.7223 56.616C75.7223 58.846 77.4778 59.4023 77.4778 60.5197C77.4778 61.2363 76.6803 61.7926 74.6888 61.7926C69.6678 61.7926 59.6257 59.3222 52.769 59.3222C45.1148 59.3222 40.0938 62.4291 40.0938 67.3653C40.0938 70.0715 41.8492 72.0658 44.4777 72.0658L44.473 72.0705Z" fill="#D02E01"/>
<path d="M151.903 106.285C151.903 106.285 151.898 106.313 151.898 106.328C151.898 106.328 151.908 106.299 151.908 106.285H151.903Z" fill="#D02E01"/>
<path d="M151.984 104.879C151.984 105.285 151.96 105.69 151.918 106.1C151.913 106.162 151.908 106.223 151.899 106.284C151.899 106.298 151.894 106.313 151.89 106.327C151.739 107.062 151.54 107.783 151.347 108.51C151.111 109.396 150.866 110.292 150.507 111.14C150.375 111.447 150.233 111.772 150.011 112.022C149.87 112.182 149.719 112.276 149.563 112.319C148.808 112.526 147.803 111.692 147.907 111.371C147.959 111.211 148.265 111.329 148.699 111.15C149.639 110.768 149.95 109.542 150.03 109.231C150.03 109.231 150.181 108.637 149.926 107.086C149.912 107.001 149.875 106.935 149.875 106.935C149.86 106.907 149.851 106.911 149.813 106.77C149.813 106.77 149.804 106.737 149.799 106.713C149.757 106.445 149.69 106.176 149.606 105.902V105.893C148.124 100.862 141.38 94.9833 135.005 88.4724L128.87 81.5466C128.228 80.9054 127.832 80.5895 127.115 80.5895C125.921 80.5895 125.359 81.3863 125.359 82.8196V86.563C125.359 89.0287 126.237 89.7453 128.71 89.9858V91.7396H115.638V89.9858C118.106 89.7453 118.984 89.0287 118.984 86.563V63.3859C118.984 56.8562 117.153 54.7063 112.844 54.7063C110.216 54.7063 107.106 56.38 107.106 61.7169C107.106 64.9794 107.984 66.8936 110.296 69.2792C111.811 70.7926 113.165 72.2258 113.165 74.2955C113.165 76.1295 112.127 77.4025 110.055 77.4025C107.984 77.4025 106.946 75.8891 106.79 74.2201C106.629 72.2258 106.153 69.3593 102.642 69.3593C98.6591 69.3593 96.8234 72.7067 96.8234 77.3223C96.8234 84.0925 100.891 88.3121 106.309 88.3121C108.064 88.3121 110.216 87.8359 111.971 85.3655L113.165 86.3225C112.368 88.6327 108.701 91.9754 102.883 91.9754C96.3468 91.9754 90.0469 87.7558 90.0469 79.7928C90.0469 71.8298 96.0259 67.3698 101.925 67.3698C103.019 67.3698 104.091 67.5018 105.209 67.8224C102.746 66.1487 101.368 63.8621 101.368 61.3162C101.368 55.5832 106.469 52.7969 112.925 52.7969C120.178 52.7969 125.359 55.107 125.359 63.3058V77.0064C125.359 77.9588 125.68 78.3595 126.317 78.3595C126.714 78.3595 127.035 78.1992 127.431 77.8834L134.764 71.5092C135.246 71.033 135.482 70.6323 135.482 70.076C135.482 68.6427 132.933 67.8459 132.933 65.4603C132.933 63.4661 134.207 61.8725 136.841 61.8725C139.87 61.8725 140.663 64.343 140.663 66.177C140.663 68.407 139.549 70.2362 136.68 72.6266L132.376 76.2898L140.186 85.3655C148.638 93.8093 151.984 99.3019 151.984 104.879Z" fill="#D02E01"/>
<path d="M149.609 105.902C149.694 106.176 149.76 106.445 149.803 106.713C149.751 106.548 149.614 106.133 149.609 105.902Z" fill="#D02E01"/>
<path d="M151.921 106.102C151.926 106.135 151.926 106.172 151.917 106.219C151.912 106.243 151.907 106.262 151.902 106.285C151.912 106.224 151.916 106.163 151.921 106.102Z" fill="#D02E01"/>
<path d="M121.51 130.247C121.048 131.237 119.849 131.869 118.943 132.383C117.905 132.972 116.664 133.863 115.413 133.684C114.455 133.547 114.375 132.189 114.375 131.444V120.95C114.375 113.312 111.463 110.945 104.97 110.945C98.9202 110.945 92.9223 112.869 92.9223 117.103C92.9223 118.861 93.9652 120.238 96.1643 120.238C101.888 120.238 97.1034 112.93 103.375 112.93C106.508 112.93 107.773 114.962 107.773 118.918V119.795C107.773 121.223 107.329 121.605 105.796 121.827C95.0648 123.368 91.332 126.06 91.332 130.511C91.332 134.962 94.7958 136.555 98.538 136.555C102.497 136.555 105.357 134.523 106.9 132.6C107.391 131.996 107.834 132.109 107.891 132.765C108.113 134.74 109.538 136.555 112.619 136.555C114.148 136.555 115.512 135.862 116.89 135.211C118.872 134.278 121.798 132.882 122.685 130.733C122.685 130.733 121.619 130.294 121.51 130.247ZM107.778 126.829C107.778 130.289 105.3 132.873 101.95 132.873C99.2553 132.873 98.0991 131.171 98.0991 129.191C98.0991 127.05 99.477 124.302 105.579 123.755C107.334 123.59 107.778 124.137 107.778 125.4V126.829Z" fill="#D02E01"/>
<path d="M138.564 124.055C138.036 124.074 137.823 124.168 137.37 124.687C135.941 126.332 134.987 128.227 133.959 130.208C132.708 132.603 131.061 135.658 128.22 136.351C124.473 137.265 120.981 135.559 120.981 131.443V106.385C120.981 103.857 119.938 103.197 117.461 103.419V101.712L125.162 100.284C126.757 100.01 127.583 100.727 127.583 102.207V131.438C127.583 132.079 127.682 132.834 128.159 133.31C128.452 133.602 128.881 133.772 129.292 133.739C130.169 133.663 130.811 132.626 131.245 131.961C131.755 131.174 132.165 130.33 132.581 129.491C133.388 127.86 134.166 126.044 135.223 124.46C135.719 123.739 136.068 123.037 136.889 122.476C137.352 122.16 137.89 122.004 138.366 121.938L138.569 124.05L138.564 124.055Z" fill="#D02E01"/>
<path d="M162.125 134.576C160.751 131.719 160.586 128.367 162.677 128.367C163.446 128.367 163.941 128.753 164.215 129.574C165.536 133.529 167.844 135.071 171.091 135.071C174.776 135.071 175.819 133.204 175.819 131.446C175.819 129.027 173.563 128.258 170.1 127.212C165.645 125.84 161.407 123.695 161.407 118.914C161.407 114.133 165.862 111.441 171.53 111.441C174.828 111.441 177.91 112.375 179.778 113.747C181.152 116.604 181.317 119.899 179.226 119.899C178.457 119.899 177.962 119.513 177.688 118.692C176.367 114.737 174.002 113.308 171.199 113.308C168.561 113.308 167.349 114.628 167.349 116.604C167.349 119.074 169.439 120.286 172.077 121.111C176.036 122.318 181.977 123.803 181.977 129.3C181.977 134.411 176.697 137.046 170.704 137.046C167.075 137.046 163.993 136.005 162.125 134.576Z" fill="#D02E01"/>
<path d="M130.895 123.675C130.895 115.047 137.605 110.762 144.481 110.762C150.2 110.762 154.381 113.727 154.381 118.234C154.381 122.742 150.474 123.345 144.372 123.732L139.809 124.005C138.818 124.062 138.379 124.557 138.379 125.764C138.379 129.328 141.078 131.803 144.405 132.543C150.743 133.953 158.543 127.319 162.257 122.713C162.347 122.6 163.984 123.51 163.932 123.859C163.89 124.123 161.927 126.028 161.757 126.235C156.24 133.001 146.991 138.932 138.204 134.547C133.693 132.506 130.904 128.71 130.904 123.675H130.895ZM139.861 122.19L142.72 122.025C147.118 121.752 148.223 120.818 148.223 118.286C148.223 115.486 146.901 112.846 143.603 112.846C139.478 112.846 138.049 116.914 138.049 119.988C138.049 121.69 138.544 122.242 139.865 122.185L139.861 122.19Z" fill="#D02E01"/>
<path d="M64.6136 113.946C67.2421 113.946 68.9174 112.512 68.8371 110.443C67.563 109.405 66.8457 108.373 66.8457 106.539C66.8457 105.186 67.7234 102.795 72.584 102.795C74.7359 102.795 76.1705 103.833 76.1705 105.902V132.342C76.1705 134.412 74.8963 135.208 70.6728 135.529V137.283H88.926V135.529C84.6222 135.208 83.4283 134.416 83.4283 132.342V106.063C83.4283 104.95 83.9049 104.309 84.9431 104.309C87.6518 104.309 91.7999 106.298 97.0568 106.298C103.276 106.298 105.745 102.956 105.745 99.6084C105.745 96.261 103.673 94.3516 100.643 94.3516C97.8543 94.3516 95.8629 96.0253 95.8629 98.491C95.8629 100.721 97.6184 101.277 97.6184 102.395C97.6184 103.111 96.8209 103.668 94.8295 103.668C89.8084 103.668 79.7664 101.197 72.9096 101.197C65.2554 101.197 60.2344 104.304 60.2344 109.24C60.2344 111.947 61.9898 113.941 64.6183 113.941L64.6136 113.946Z" fill="#D02E01"/>
</svg>
