<svg width="20" height="20" viewBox="0 0 20 20" fill="none" xmlns="http://www.w3.org/2000/svg">
<path d="M2.33969 0.929993L0.929688 2.33999L5.28969 6.69999L4.99969 6.99999H0.999687V13H4.99969L9.99969 18V11.41L14.1797 15.59C13.5297 16.08 12.7997 16.47 11.9997 16.7V18.76C13.3397 18.46 14.5697 17.84 15.6097 17.01L17.6597 19.06L19.0697 17.65L2.33969 0.929993ZM7.99969 13.17L5.82969 11H2.99969V8.99999H5.82969L6.70969 8.11999L7.99969 9.40999V13.17ZM16.9997 9.99999C16.9997 10.82 16.8497 11.61 16.5897 12.34L18.1197 13.87C18.6797 12.7 18.9997 11.39 18.9997 9.99999C18.9997 5.71999 16.0097 2.13999 11.9997 1.22999V3.28999C14.8897 4.14999 16.9997 6.82999 16.9997 9.99999ZM9.99969 1.99999L8.11969 3.87999L9.99969 5.75999V1.99999ZM14.4997 9.99999C14.4997 8.22999 13.4797 6.70999 11.9997 5.96999V7.75999L14.4797 10.24C14.4897 10.16 14.4997 10.08 14.4997 9.99999Z" fill="#FFF8E7"/>
</svg>
