<svg width="24" height="24" viewBox="0 0 24 24" fill="none" xmlns="http://www.w3.org/2000/svg">
<path d="M11 22C10.45 22 9.97933 21.8043 9.588 21.413C9.196 21.021 9 20.55 9 20V16H6C5.45 16 4.97933 15.804 4.588 15.412C4.196 15.0207 4 14.55 4 14V7C4 5.9 4.39167 4.95833 5.175 4.175C5.95833 3.39167 6.9 3 8 3H20V14C20 14.55 19.8043 15.0207 19.413 15.412C19.021 15.804 18.55 16 18 16H15V20C15 20.55 14.8043 21.021 14.413 21.413C14.021 21.8043 13.55 22 13 22H11ZM6 10H18V5H17V9H15V5H14V7H12V5H8C7.45 5 6.97933 5.196 6.588 5.588C6.196 5.97933 6 6.45 6 7V10ZM6 14H18V12H6V14Z" fill="black"/>
</svg>
