<svg width="24" height="24" viewBox="0 0 24 24" fill="none" xmlns="http://www.w3.org/2000/svg">
<path d="M12.5234 14C12.74 14 12.919 13.929 13.0604 13.787C13.2024 13.6457 13.2734 13.4667 13.2734 13.25C13.2734 13.0333 13.2024 12.854 13.0604 12.712C12.919 12.5707 12.74 12.5 12.5234 12.5C12.3067 12.5 12.1277 12.5707 11.9864 12.712C11.8444 12.854 11.7734 13.0333 11.7734 13.25C11.7734 13.4667 11.8444 13.6457 11.9864 13.787C12.1277 13.929 12.3067 14 12.5234 14ZM11.9984 11.75H13.0484C13.0484 11.4833 13.065 11.2873 13.0984 11.162C13.1317 11.0373 13.2067 10.9083 13.3234 10.775C13.4067 10.675 13.4944 10.5793 13.5864 10.488C13.6777 10.396 13.7817 10.2833 13.8984 10.15C14.1317 9.9 14.294 9.67067 14.3854 9.462C14.4774 9.254 14.5234 9.03333 14.5234 8.8C14.5234 8.26667 14.3444 7.83333 13.9864 7.5C13.6277 7.16667 13.1567 7 12.5734 7C12.09 7 11.661 7.129 11.2864 7.387C10.911 7.64567 10.6484 8 10.4984 8.45L11.4734 8.85C11.5567 8.56667 11.6944 8.35 11.8864 8.2C12.0777 8.05 12.2984 7.975 12.5484 7.975C12.815 7.975 13.036 8.05833 13.2114 8.225C13.386 8.39167 13.4734 8.6 13.4734 8.85C13.4734 9 13.4317 9.14567 13.3484 9.287C13.265 9.429 13.14 9.58333 12.9734 9.75C12.8567 9.86667 12.74 9.975 12.6234 10.075C12.5067 10.175 12.3984 10.2917 12.2984 10.425C12.1484 10.6417 12.061 10.8583 12.0364 11.075C12.011 11.2917 11.9984 11.5167 11.9984 11.75ZM8.99838 21V18H7.99838C7.44838 18 6.97771 17.8043 6.58638 17.413C6.19438 17.021 5.99838 16.55 5.99838 16V14H4.99838C4.59838 14 4.31105 13.8333 4.13638 13.5C3.96105 13.1667 3.96505 12.8333 4.14838 12.5L6.12338 9C6.25671 7.33333 6.99005 5.91667 8.32338 4.75C9.65671 3.58333 11.215 3 12.9984 3C14.9317 3 16.5817 3.68333 17.9484 5.05C19.315 6.41667 19.9984 8.06667 19.9984 10C19.9984 11.4167 19.6277 12.6833 18.8864 13.8C18.1444 14.9167 17.1817 15.7667 15.9984 16.35V21H8.99838ZM10.9984 19H13.9984V15.05L14.8984 14.65C15.7984 14.25 16.54 13.6373 17.1234 12.812C17.7067 11.9873 17.9984 11.05 17.9984 10C17.9984 8.61667 17.511 7.43767 16.5364 6.463C15.561 5.48767 14.3817 5 12.9984 5C11.665 5 10.519 5.446 9.56038 6.338C8.60238 7.22933 8.08171 8.375 7.99838 9.775L6.72338 12H7.99838V16H10.9984V19Z" fill="black"/>
</svg>
