<svg width="24" height="25" viewBox="0 0 24 25" fill="none" xmlns="http://www.w3.org/2000/svg">
<g clip-path="url(#clip0_619_17618)">
<path d="M17.6498 6.85C16.1998 5.4 14.2098 4.5 11.9998 4.5C7.57977 4.5 4.00977 8.08 4.00977 12.5C4.00977 16.92 7.57977 20.5 11.9998 20.5C15.7298 20.5 18.8398 17.95 19.7298 14.5H17.6498C16.8298 16.83 14.6098 18.5 11.9998 18.5C8.68977 18.5 5.99977 15.81 5.99977 12.5C5.99977 9.19 8.68977 6.5 11.9998 6.5C13.6598 6.5 15.1398 7.19 16.2198 8.28L12.9998 11.5H19.9998V4.5L17.6498 6.85Z" fill="#FFF8E7"/>
</g>
<defs>
<clipPath id="clip0_619_17618">
<rect width="24" height="24" fill="white" transform="translate(0 0.5)"/>
</clipPath>
</defs>
</svg>
