<svg width="28" height="28" viewBox="0 0 28 28" fill="none" xmlns="http://www.w3.org/2000/svg">
<g clip-path="url(#clip0_619_18311)">
<path d="M15.796 14.0752C15.796 18.4666 12.2603 22.0265 7.89909 22.0265C3.53788 22.0265 0.00195312 18.4666 0.00195312 14.0752C0.00195312 9.68383 3.53761 6.12366 7.89909 6.12366C12.2606 6.12366 15.796 9.68383 15.796 14.0752Z" fill="#D02E01"/>
<path d="M24.4577 14.0749C24.4577 18.2084 22.6899 21.5607 20.5091 21.5607C18.3284 21.5607 16.5605 18.2084 16.5605 14.0749C16.5605 9.94134 18.3281 6.58911 20.5088 6.58911C22.6896 6.58911 24.4574 9.94027 24.4574 14.0749" fill="#D02E01"/>
<path d="M28.0008 14.0755C28.0008 17.7781 27.3792 20.7816 26.6121 20.7816C25.845 20.7816 25.2236 17.7789 25.2236 14.0755C25.2236 10.372 25.8453 7.36942 26.6121 7.36942C27.3789 7.36942 28.0008 10.3718 28.0008 14.0755Z" fill="#D02E01"/>
</g>
<defs>
<clipPath id="clip0_619_18311">
<rect width="28" height="28" fill="white"/>
</clipPath>
</defs>
</svg>
