<svg width="24" height="24" viewBox="0 0 24 24" fill="none" xmlns="http://www.w3.org/2000/svg">
<path d="M4.225 18.3258C3.525 17.4591 2.97917 16.4883 2.5875 15.4133C2.19583 14.3383 2 13.2008 2 12.0008C2 9.38411 2.8625 7.13411 4.5875 5.25078C6.3125 3.36745 8.45 2.30078 11 2.05078V4.05078C9 4.28411 7.33333 5.15078 6 6.65078C4.66667 8.15078 4 9.93411 4 12.0008C4 12.9341 4.14167 13.8133 4.425 14.6383C4.70833 15.4633 5.11667 16.2174 5.65 16.9008L4.225 18.3258ZM12 22.0008C10.7833 22.0008 9.63333 21.8008 8.55 21.4008C7.46667 21.0008 6.49167 20.4424 5.625 19.7258L7.025 18.3008C7.70833 18.8341 8.47083 19.2508 9.3125 19.5508C10.1542 19.8508 11.05 20.0008 12 20.0008C12.95 20.0008 13.8458 19.8508 14.6875 19.5508C15.5292 19.2508 16.2917 18.8341 16.975 18.3008L18.375 19.7258C17.5083 20.4424 16.5333 21.0008 15.45 21.4008C14.3667 21.8008 13.2167 22.0008 12 22.0008ZM19.775 18.3258L18.35 16.9008C18.8833 16.2174 19.2917 15.4633 19.575 14.6383C19.8583 13.8133 20 12.9341 20 12.0008C20 9.93411 19.3333 8.15078 18 6.65078C16.6667 5.15078 15 4.28411 13 4.05078V2.05078C15.55 2.30078 17.6875 3.36745 19.4125 5.25078C21.1375 7.13411 22 9.38411 22 12.0008C22 13.2008 21.8042 14.3383 21.4125 15.4133C21.0208 16.4883 20.475 17.4591 19.775 18.3258ZM9.5 16.5008V7.50078L16.5 12.0008L9.5 16.5008Z" fill="black"/>
</svg>
