<svg width="24" height="25" viewBox="0 0 24 25" fill="none" xmlns="http://www.w3.org/2000/svg">
<g clip-path="url(#clip0_619_17608)">
<path d="M17 7.5H7C4.24 7.5 2 9.74 2 12.5C2 15.26 4.24 17.5 7 17.5H17C19.76 17.5 22 15.26 22 12.5C22 9.74 19.76 7.5 17 7.5ZM7 15.5C5.34 15.5 4 14.16 4 12.5C4 10.84 5.34 9.5 7 9.5C8.66 9.5 10 10.84 10 12.5C10 14.16 8.66 15.5 7 15.5Z" fill="#FFF8E7"/>
</g>
<defs>
<clipPath id="clip0_619_17608">
<rect width="24" height="24" fill="white" transform="translate(0 0.5)"/>
</clipPath>
</defs>
</svg>
