<svg xmlns="http://www.w3.org/2000/svg" viewBox="0 0 32 32" fill="#1DA1F2">
    <path d="M26 10.085c.012.173.012.346.012.518 0 5.287-4.023 11.393-11.393 11.393-2.264 0-4.365-.66-6.135-1.788.317.038.623.05.952.05 1.875 0 3.6-.636 4.972-1.71-1.75-.037-3.224-1.19-3.732-2.782.244.038.488.063.745.063.36 0 .722-.05 1.06-.14-1.825-.367-3.196-1.977-3.196-3.908v-.05c.538.3 1.16.478 1.82.498a4.008 4.008 0 01-1.79-3.34c0-.748.2-1.45.55-2.053a11.392 11.392 0 008.27 4.193 4.017 4.017 0 01-.1-.918c0-2.222 1.8-4.023 4.023-4.023 1.158 0 2.202.487 2.933 1.27a7.953 7.953 0 002.552-.97 4.017 4.017 0 01-1.765 2.215 8.034 8.034 0 002.31-.61 8.604 8.604 0 01-2.013 2.09z"/>
</svg>
