<svg width="24" height="24" viewBox="0 0 24 24" fill="none" xmlns="http://www.w3.org/2000/svg">
<g opacity="0.25">
<path d="M7.9998 19C7.71647 19 7.4788 18.904 7.2868 18.712C7.09547 18.5207 6.9998 18.2833 6.9998 18C6.9998 17.7167 7.09547 17.4793 7.2868 17.288C7.4788 17.096 7.71647 17 7.9998 17H14.0998C15.1498 17 16.0621 16.6667 16.8368 16C17.6121 15.3333 17.9998 14.5 17.9998 13.5C17.9998 12.5 17.6121 11.6667 16.8368 11C16.0621 10.3333 15.1498 9.99999 14.0998 9.99999H7.7998L9.6998 11.9C9.88314 12.0833 9.9748 12.3167 9.9748 12.6C9.9748 12.8833 9.88314 13.1167 9.6998 13.3C9.51647 13.4833 9.28314 13.575 8.9998 13.575C8.71647 13.575 8.48314 13.4833 8.2998 13.3L4.6998 9.69999C4.5998 9.59999 4.5288 9.49165 4.4868 9.37499C4.44547 9.25832 4.4248 9.13332 4.4248 8.99999C4.4248 8.86665 4.44547 8.74165 4.4868 8.62499C4.5288 8.50832 4.5998 8.39999 4.6998 8.29999L8.2998 4.69999C8.48314 4.51665 8.71647 4.42499 8.9998 4.42499C9.28314 4.42499 9.51647 4.51665 9.6998 4.69999C9.88314 4.88332 9.9748 5.11665 9.9748 5.39999C9.9748 5.68332 9.88314 5.91665 9.6998 6.09999L7.7998 7.99999H14.0998C15.7165 7.99999 17.1041 8.52499 18.2628 9.57499C19.4208 10.625 19.9998 11.9333 19.9998 13.5C19.9998 15.0667 19.4208 16.375 18.2628 17.425C17.1041 18.475 15.7165 19 14.0998 19H7.9998Z" fill="black"/>
</g>
</svg>
