<svg width="24" height="25" viewBox="0 0 24 25" fill="none" xmlns="http://www.w3.org/2000/svg">
<g clip-path="url(#clip0_619_17613)">
<path d="M3 9.49998V15.5H7L12 20.5V4.49998L7 9.49998H3ZM10 9.32998V15.67L7.83 13.5H5V11.5H7.83L10 9.32998ZM16.5 12.5C16.5 10.73 15.48 9.20998 14 8.46998V16.52C15.48 15.79 16.5 14.27 16.5 12.5ZM14 3.72998V5.78998C16.89 6.64998 19 9.32998 19 12.5C19 15.67 16.89 18.35 14 19.21V21.27C18.01 20.36 21 16.78 21 12.5C21 8.21998 18.01 4.63998 14 3.72998Z" fill="#FFF8E7"/>
</g>
<defs>
<clipPath id="clip0_619_17613">
<rect width="24" height="24" fill="white" transform="translate(0 0.5)"/>
</clipPath>
</defs>
</svg>
