<svg xmlns="http://www.w3.org/2000/svg" viewBox="0 0 32 32" fill="#25D366">
    <path d="M16.002 3.2c-7.07 0-12.8 5.73-12.8 12.8 0 2.258.59 4.475 1.71 6.423L3.2 28.8l6.616-1.732a12.77 12.77 0 006.186 1.577h.002c7.07 0 12.8-5.73 12.8-12.8s-5.73-12.8-12.8-12.8zM16 26.667c-1.938 0-3.836-.52-5.5-1.5l-.393-.233-3.934 1.03 1.05-3.824-.255-.402a10.59 10.59 0 01-1.635-5.635c0-5.882 4.785-10.667 10.667-10.667S26.667 10.785 26.667 16.667 21.882 26.667 16 26.667zm5.338-7.354c-.29-.145-1.714-.847-1.98-.943-.266-.097-.46-.145-.654.145-.193.29-.75.943-.92 1.14-.17.193-.34.217-.63.073-.29-.145-1.22-.448-2.324-1.43-.86-.768-1.44-1.713-1.61-2.003-.17-.29-.018-.448.127-.59.13-.128.29-.338.435-.508.145-.17.193-.29.29-.483.096-.193.048-.362-.024-.508-.073-.145-.653-1.577-.897-2.163-.237-.568-.48-.492-.653-.5l-.558-.01a1.07 1.07 0 00-.778.362c-.266.29-1.01.99-1.01 2.413 0 1.422 1.032 2.797 1.175 2.99.145.193 2.03 3.097 4.92 4.34.687.296 1.223.472 1.64.603.688.22 1.313.19 1.808.115.552-.082 1.714-.7 1.956-1.378.24-.678.24-1.26.17-1.378-.073-.115-.266-.186-.555-.32z"/>
</svg>
